# xmcd CD database file generated by Grip 2.94
# 
# Track frame offsets:
#       150
#       12287
#       26157
#       38825
#       50817
#       64107
#       79012
#       89192
#       104107
#       118132
#       131667
#       144435
#       157655
#       171847
#       186425
#       201457
#       214730
#       228272
#       242700
#       256457
# 
# Disc length: 3599 seconds
# 
# Revision: 3
# Processed by: cddbd v1.4b41PL1 Copyright (c) Steve Scherf et al.
# Submitted via: Grip 2.94
# 
DISCID=2b0e0d14
DTITLE=Billie Holiday - In The Dark
DYEAR=1900
DGENRE=
TTITLE0=I Hear Music
TTITLE1=Time on my Hands
TTITLE2=St Louis Blues
TTITLE3=Practice Makes Perfect
TTITLE4=Let's Do It
TTITLE5=Loveless Love
TTITLE6=Romance in the Dark
TTITLE7=Georgia on my Mind
TTITLE8=I'm in a Lowdown Groove
TTITLE9=All Of Me
TTITLE10=Am I Blue?
TTITLE11=God Bless This Child
TTITLE12=Jim
TTITLE13=Solitude
TTITLE14=Love Me or Leave Me
TTITLE15=I Cover the Water Front
TTITLE16=Wherever You Are
TTITLE17=Gloomy Sunday
TTITLE18=It's a Sin to Tell a Lie
TTITLE19=Mandy is Two
EXTD=
EXTT0=
EXTT1=
EXTT2=
EXTT3=
EXTT4=
EXTT5=
EXTT6=
EXTT7=
EXTT8=
EXTT9=
EXTT10=
EXTT11=
EXTT12=
EXTT13=
EXTT14=
EXTT15=
EXTT16=
EXTT17=
EXTT18=
EXTT19=
PLAYORDER=
